<mxfile host="app.diagrams.net" modified="2021-08-02T19:20:55.531Z" agent="5.0 (Windows NT 10.0; Win64; x64) AppleWebKit/537.36 (KHTML, like Gecko) Chrome/92.0.4515.107 Safari/537.36" etag="_1tkvxcou2SzNOhEK4Wh" version="14.9.3" type="github">
  <diagram id="RUEkLYq3bLoNr5pZy6MD" name="Page-1">
    <mxGraphModel dx="1974" dy="1729" grid="1" gridSize="10" guides="1" tooltips="1" connect="1" arrows="1" fold="1" page="1" pageScale="1" pageWidth="850" pageHeight="1100" math="0" shadow="0">
      <root>
        <mxCell id="0" />
        <mxCell id="1" parent="0" />
        <mxCell id="P52JqAolS430aCwuecmm-8" value="" style="edgeStyle=orthogonalEdgeStyle;rounded=0;orthogonalLoop=1;jettySize=auto;html=1;" parent="1" source="P52JqAolS430aCwuecmm-1" target="P52JqAolS430aCwuecmm-2" edge="1">
          <mxGeometry relative="1" as="geometry" />
        </mxCell>
        <mxCell id="P52JqAolS430aCwuecmm-1" value="&lt;font style=&quot;font-size: 14px&quot;&gt;instructor land on our website&lt;/font&gt;" style="ellipse;whiteSpace=wrap;html=1;aspect=fixed;fillColor=#fff2cc;strokeColor=#d6b656;" parent="1" vertex="1">
          <mxGeometry x="-30" y="270" width="180" height="180" as="geometry" />
        </mxCell>
        <mxCell id="P52JqAolS430aCwuecmm-11" value="" style="edgeStyle=orthogonalEdgeStyle;rounded=0;orthogonalLoop=1;jettySize=auto;html=1;" parent="1" source="P52JqAolS430aCwuecmm-2" target="P52JqAolS430aCwuecmm-9" edge="1">
          <mxGeometry relative="1" as="geometry" />
        </mxCell>
        <mxCell id="P52JqAolS430aCwuecmm-18" value="" style="edgeStyle=orthogonalEdgeStyle;rounded=0;orthogonalLoop=1;jettySize=auto;html=1;" parent="1" source="P52JqAolS430aCwuecmm-2" target="P52JqAolS430aCwuecmm-14" edge="1">
          <mxGeometry relative="1" as="geometry" />
        </mxCell>
        <mxCell id="P52JqAolS430aCwuecmm-2" value="&lt;font style=&quot;font-size: 14px&quot;&gt;have an &lt;br&gt;account ?&lt;/font&gt;" style="rhombus;whiteSpace=wrap;html=1;fillColor=#dae8fc;strokeColor=#6c8ebf;" parent="1" vertex="1">
          <mxGeometry x="200" y="280" width="160" height="160" as="geometry" />
        </mxCell>
        <mxCell id="P52JqAolS430aCwuecmm-20" value="" style="edgeStyle=orthogonalEdgeStyle;rounded=0;orthogonalLoop=1;jettySize=auto;html=1;" parent="1" source="P52JqAolS430aCwuecmm-9" target="P52JqAolS430aCwuecmm-19" edge="1">
          <mxGeometry relative="1" as="geometry" />
        </mxCell>
        <mxCell id="P52JqAolS430aCwuecmm-9" value="Sign Up" style="rhombus;whiteSpace=wrap;html=1;fillColor=#dae8fc;strokeColor=#6c8ebf;" parent="1" vertex="1">
          <mxGeometry x="200" y="40" width="160" height="160" as="geometry" />
        </mxCell>
        <mxCell id="P52JqAolS430aCwuecmm-12" value="No" style="text;html=1;align=center;verticalAlign=middle;resizable=0;points=[];autosize=1;strokeColor=none;" parent="1" vertex="1">
          <mxGeometry x="255" y="250" width="30" height="20" as="geometry" />
        </mxCell>
        <mxCell id="P52JqAolS430aCwuecmm-13" value="Yes" style="text;html=1;strokeColor=none;fillColor=none;align=center;verticalAlign=middle;whiteSpace=wrap;rounded=0;" parent="1" vertex="1">
          <mxGeometry x="380" y="340" width="40" height="20" as="geometry" />
        </mxCell>
        <mxCell id="P52JqAolS430aCwuecmm-25" value="" style="edgeStyle=orthogonalEdgeStyle;rounded=0;orthogonalLoop=1;jettySize=auto;html=1;" parent="1" source="P52JqAolS430aCwuecmm-14" target="P52JqAolS430aCwuecmm-24" edge="1">
          <mxGeometry relative="1" as="geometry" />
        </mxCell>
        <mxCell id="P52JqAolS430aCwuecmm-14" value="sign In/&lt;br&gt;Login" style="rhombus;whiteSpace=wrap;html=1;fillColor=#dae8fc;strokeColor=#6c8ebf;" parent="1" vertex="1">
          <mxGeometry x="440" y="280" width="150" height="160" as="geometry" />
        </mxCell>
        <mxCell id="P52JqAolS430aCwuecmm-15" style="edgeStyle=orthogonalEdgeStyle;rounded=0;orthogonalLoop=1;jettySize=auto;html=1;exitX=0.5;exitY=1;exitDx=0;exitDy=0;" parent="1" source="P52JqAolS430aCwuecmm-2" target="P52JqAolS430aCwuecmm-2" edge="1">
          <mxGeometry relative="1" as="geometry" />
        </mxCell>
        <mxCell id="P52JqAolS430aCwuecmm-21" value="" style="edgeStyle=orthogonalEdgeStyle;rounded=0;orthogonalLoop=1;jettySize=auto;html=1;" parent="1" source="P52JqAolS430aCwuecmm-19" target="P52JqAolS430aCwuecmm-14" edge="1">
          <mxGeometry relative="1" as="geometry" />
        </mxCell>
        <mxCell id="P52JqAolS430aCwuecmm-19" value="verify email" style="rhombus;whiteSpace=wrap;html=1;fillColor=#dae8fc;strokeColor=#6c8ebf;" parent="1" vertex="1">
          <mxGeometry x="430" y="40" width="170" height="160" as="geometry" />
        </mxCell>
        <mxCell id="P52JqAolS430aCwuecmm-22" value="success" style="text;html=1;strokeColor=none;fillColor=none;align=center;verticalAlign=middle;whiteSpace=wrap;rounded=0;" parent="1" vertex="1">
          <mxGeometry x="370" y="100" width="40" height="20" as="geometry" />
        </mxCell>
        <mxCell id="P52JqAolS430aCwuecmm-23" value="verifyed" style="text;html=1;strokeColor=none;fillColor=none;align=center;verticalAlign=middle;whiteSpace=wrap;rounded=0;" parent="1" vertex="1">
          <mxGeometry x="520" y="230" width="40" height="20" as="geometry" />
        </mxCell>
        <mxCell id="P52JqAolS430aCwuecmm-29" value="" style="edgeStyle=orthogonalEdgeStyle;rounded=0;orthogonalLoop=1;jettySize=auto;html=1;" parent="1" source="P52JqAolS430aCwuecmm-24" target="P52JqAolS430aCwuecmm-28" edge="1">
          <mxGeometry relative="1" as="geometry" />
        </mxCell>
        <mxCell id="P52JqAolS430aCwuecmm-24" value="course&lt;br&gt;Manager" style="rhombus;whiteSpace=wrap;html=1;fillColor=#dae8fc;strokeColor=#6c8ebf;" parent="1" vertex="1">
          <mxGeometry x="680" y="280" width="160" height="160" as="geometry" />
        </mxCell>
        <mxCell id="P52JqAolS430aCwuecmm-27" value="valid user" style="text;html=1;align=center;verticalAlign=middle;resizable=0;points=[];autosize=1;strokeColor=none;" parent="1" vertex="1">
          <mxGeometry x="590" y="340" width="70" height="20" as="geometry" />
        </mxCell>
        <mxCell id="P52JqAolS430aCwuecmm-34" value="" style="edgeStyle=orthogonalEdgeStyle;rounded=0;orthogonalLoop=1;jettySize=auto;html=1;entryX=0;entryY=0.5;entryDx=0;entryDy=0;" parent="1" source="P52JqAolS430aCwuecmm-28" target="P52JqAolS430aCwuecmm-33" edge="1">
          <mxGeometry relative="1" as="geometry" />
        </mxCell>
        <mxCell id="P52JqAolS430aCwuecmm-28" value="have a &lt;br&gt;course ?" style="rhombus;whiteSpace=wrap;html=1;fillColor=#dae8fc;strokeColor=#6c8ebf;" parent="1" vertex="1">
          <mxGeometry x="920" y="280" width="160" height="160" as="geometry" />
        </mxCell>
        <mxCell id="P52JqAolS430aCwuecmm-45" value="" style="edgeStyle=orthogonalEdgeStyle;rounded=0;orthogonalLoop=1;jettySize=auto;html=1;entryX=0.5;entryY=0;entryDx=0;entryDy=0;" parent="1" source="P52JqAolS430aCwuecmm-30" target="P52JqAolS430aCwuecmm-33" edge="1">
          <mxGeometry relative="1" as="geometry">
            <Array as="points">
              <mxPoint x="1005" />
              <mxPoint x="1250" />
            </Array>
          </mxGeometry>
        </mxCell>
        <mxCell id="P52JqAolS430aCwuecmm-30" value="create&lt;br&gt;a course" style="rhombus;whiteSpace=wrap;html=1;fillColor=#dae8fc;strokeColor=#6c8ebf;rotation=45;rounded=1;arcSize=18;direction=west;" parent="1" vertex="1">
          <mxGeometry x="927.2" y="24.700000000000003" width="155" height="160" as="geometry" />
        </mxCell>
        <mxCell id="P52JqAolS430aCwuecmm-32" value="No" style="text;html=1;align=center;verticalAlign=middle;resizable=0;points=[];autosize=1;strokeColor=none;" parent="1" vertex="1">
          <mxGeometry x="1000" y="220" width="30" height="20" as="geometry" />
        </mxCell>
        <mxCell id="P52JqAolS430aCwuecmm-47" value="" style="edgeStyle=orthogonalEdgeStyle;rounded=0;orthogonalLoop=1;jettySize=auto;html=1;" parent="1" source="P52JqAolS430aCwuecmm-33" target="P52JqAolS430aCwuecmm-39" edge="1">
          <mxGeometry relative="1" as="geometry" />
        </mxCell>
        <mxCell id="P52JqAolS430aCwuecmm-33" value="Launch&lt;br&gt;course" style="rhombus;whiteSpace=wrap;html=1;fillColor=#dae8fc;strokeColor=#6c8ebf;" parent="1" vertex="1">
          <mxGeometry x="1175" y="30" width="150" height="160" as="geometry" />
        </mxCell>
        <mxCell id="P52JqAolS430aCwuecmm-35" value="yes" style="text;html=1;strokeColor=none;fillColor=none;align=center;verticalAlign=middle;whiteSpace=wrap;rounded=0;" parent="1" vertex="1">
          <mxGeometry x="1090" y="230" width="40" height="20" as="geometry" />
        </mxCell>
        <mxCell id="P52JqAolS430aCwuecmm-74" value="" style="edgeStyle=orthogonalEdgeStyle;rounded=0;orthogonalLoop=1;jettySize=auto;html=1;" parent="1" source="P52JqAolS430aCwuecmm-39" target="P52JqAolS430aCwuecmm-49" edge="1">
          <mxGeometry relative="1" as="geometry" />
        </mxCell>
        <mxCell id="P52JqAolS430aCwuecmm-76" value="" style="edgeStyle=orthogonalEdgeStyle;rounded=0;orthogonalLoop=1;jettySize=auto;html=1;" parent="1" source="P52JqAolS430aCwuecmm-39" target="P52JqAolS430aCwuecmm-75" edge="1">
          <mxGeometry relative="1" as="geometry" />
        </mxCell>
        <mxCell id="P52JqAolS430aCwuecmm-39" value="have an&amp;nbsp;&lt;br&gt;assignment ?" style="rhombus;whiteSpace=wrap;html=1;fillColor=#dae8fc;strokeColor=#6c8ebf;" parent="1" vertex="1">
          <mxGeometry x="1415" y="30" width="155" height="160" as="geometry" />
        </mxCell>
        <mxCell id="P52JqAolS430aCwuecmm-48" value="Launched" style="text;html=1;strokeColor=none;fillColor=none;align=center;verticalAlign=middle;whiteSpace=wrap;rounded=0;" parent="1" vertex="1">
          <mxGeometry x="1350" y="90" width="40" height="20" as="geometry" />
        </mxCell>
        <mxCell id="P52JqAolS430aCwuecmm-55" value="" style="edgeStyle=orthogonalEdgeStyle;rounded=0;orthogonalLoop=1;jettySize=auto;html=1;" parent="1" source="P52JqAolS430aCwuecmm-49" target="P52JqAolS430aCwuecmm-51" edge="1">
          <mxGeometry relative="1" as="geometry" />
        </mxCell>
        <mxCell id="P52JqAolS430aCwuecmm-57" value="" style="edgeStyle=orthogonalEdgeStyle;rounded=0;orthogonalLoop=1;jettySize=auto;html=1;" parent="1" source="P52JqAolS430aCwuecmm-49" target="P52JqAolS430aCwuecmm-56" edge="1">
          <mxGeometry relative="1" as="geometry" />
        </mxCell>
        <mxCell id="P52JqAolS430aCwuecmm-49" value="Create Assignment" style="rhombus;whiteSpace=wrap;html=1;fillColor=#dae8fc;strokeColor=#6c8ebf;direction=north;rounded=1;arcSize=23;rotation=45;" parent="1" vertex="1">
          <mxGeometry x="1410" y="280" width="155" height="160" as="geometry" />
        </mxCell>
        <mxCell id="P52JqAolS430aCwuecmm-51" value="Release Course&lt;br&gt;(save course)" style="rhombus;whiteSpace=wrap;html=1;fillColor=#dae8fc;strokeColor=#6c8ebf;" parent="1" vertex="1">
          <mxGeometry x="1690" y="350" width="160" height="160" as="geometry" />
        </mxCell>
        <mxCell id="P52JqAolS430aCwuecmm-54" value="Yes" style="text;html=1;align=center;verticalAlign=middle;resizable=0;points=[];autosize=1;strokeColor=none;" parent="1" vertex="1">
          <mxGeometry x="1380" y="140" width="30" height="20" as="geometry" />
        </mxCell>
        <mxCell id="P52JqAolS430aCwuecmm-56" value="Create More &lt;br&gt;assignments" style="rhombus;whiteSpace=wrap;html=1;fillColor=#dae8fc;strokeColor=#6c8ebf;" parent="1" vertex="1">
          <mxGeometry x="1430" y="590" width="160" height="160" as="geometry" />
        </mxCell>
        <mxCell id="P52JqAolS430aCwuecmm-64" value="yes" style="text;html=1;align=center;verticalAlign=middle;resizable=0;points=[];autosize=1;strokeColor=none;" parent="1" vertex="1">
          <mxGeometry x="1490" y="480" width="30" height="20" as="geometry" />
        </mxCell>
        <mxCell id="P52JqAolS430aCwuecmm-65" value="" style="endArrow=classic;html=1;entryX=0.5;entryY=1;entryDx=0;entryDy=0;" parent="1" target="P52JqAolS430aCwuecmm-51" edge="1">
          <mxGeometry width="50" height="50" relative="1" as="geometry">
            <mxPoint x="1590" y="670" as="sourcePoint" />
            <mxPoint x="1800" y="510" as="targetPoint" />
            <Array as="points">
              <mxPoint x="1760" y="670" />
            </Array>
          </mxGeometry>
        </mxCell>
        <mxCell id="P52JqAolS430aCwuecmm-66" value="No" style="text;html=1;align=center;verticalAlign=middle;resizable=0;points=[];autosize=1;strokeColor=none;" parent="1" vertex="1">
          <mxGeometry x="1660" y="640" width="30" height="20" as="geometry" />
        </mxCell>
        <mxCell id="P52JqAolS430aCwuecmm-67" value="Share you course&lt;br&gt;/ invite students&lt;br&gt;&amp;nbsp;for course" style="rhombus;whiteSpace=wrap;html=1;fillColor=#dae8fc;strokeColor=#6c8ebf;rotation=45;rounded=1;" parent="1" vertex="1">
          <mxGeometry x="1840" y="820" width="160" height="160" as="geometry" />
        </mxCell>
        <mxCell id="P52JqAolS430aCwuecmm-68" value="" style="endArrow=classic;html=1;exitX=1;exitY=0.5;exitDx=0;exitDy=0;entryX=0;entryY=0;entryDx=0;entryDy=0;" parent="1" source="P52JqAolS430aCwuecmm-51" target="P52JqAolS430aCwuecmm-67" edge="1">
          <mxGeometry width="50" height="50" relative="1" as="geometry">
            <mxPoint x="1600" y="360" as="sourcePoint" />
            <mxPoint x="1610" y="770" as="targetPoint" />
            <Array as="points">
              <mxPoint x="1920" y="430" />
            </Array>
          </mxGeometry>
        </mxCell>
        <mxCell id="P52JqAolS430aCwuecmm-69" value="share course" style="text;html=1;align=center;verticalAlign=middle;resizable=0;points=[];autosize=1;strokeColor=none;" parent="1" vertex="1">
          <mxGeometry x="1920" y="670" width="80" height="20" as="geometry" />
        </mxCell>
        <mxCell id="P52JqAolS430aCwuecmm-72" value="" style="endArrow=classic;html=1;exitX=0.5;exitY=0;exitDx=0;exitDy=0;entryX=0;entryY=0;entryDx=0;entryDy=0;" parent="1" source="P52JqAolS430aCwuecmm-28" target="P52JqAolS430aCwuecmm-30" edge="1">
          <mxGeometry width="50" height="50" relative="1" as="geometry">
            <mxPoint x="1160" y="330" as="sourcePoint" />
            <mxPoint x="1004" y="170" as="targetPoint" />
          </mxGeometry>
        </mxCell>
        <mxCell id="P52JqAolS430aCwuecmm-75" value="Edit Assignment" style="rhombus;whiteSpace=wrap;html=1;fillColor=#dae8fc;strokeColor=#6c8ebf;direction=north;rounded=1;arcSize=23;rotation=45;" parent="1" vertex="1">
          <mxGeometry x="1700" y="30" width="155" height="160" as="geometry" />
        </mxCell>
        <mxCell id="P52JqAolS430aCwuecmm-77" value="edit" style="text;html=1;align=center;verticalAlign=middle;resizable=0;points=[];autosize=1;strokeColor=none;" parent="1" vertex="1">
          <mxGeometry x="1635" y="80" width="30" height="20" as="geometry" />
        </mxCell>
        <mxCell id="P52JqAolS430aCwuecmm-78" value="" style="endArrow=classic;html=1;entryX=0.5;entryY=0;entryDx=0;entryDy=0;" parent="1" target="P52JqAolS430aCwuecmm-51" edge="1">
          <mxGeometry width="50" height="50" relative="1" as="geometry">
            <mxPoint x="1770" y="170" as="sourcePoint" />
            <mxPoint x="1590" y="280" as="targetPoint" />
          </mxGeometry>
        </mxCell>
        <mxCell id="P52JqAolS430aCwuecmm-79" value="Save Assignment" style="text;html=1;align=center;verticalAlign=middle;resizable=0;points=[];autosize=1;strokeColor=none;" parent="1" vertex="1">
          <mxGeometry x="1780" y="260" width="110" height="20" as="geometry" />
        </mxCell>
        <mxCell id="P52JqAolS430aCwuecmm-80" value="Save Assignment" style="text;html=1;align=center;verticalAlign=middle;resizable=0;points=[];autosize=1;strokeColor=none;" parent="1" vertex="1">
          <mxGeometry x="1555" y="340" width="110" height="20" as="geometry" />
        </mxCell>
        <mxCell id="zNdpLEjtTtn93k2vqWFM-1" value="" style="endArrow=classic;html=1;entryX=0;entryY=0;entryDx=0;entryDy=0;exitX=0;exitY=0.5;exitDx=0;exitDy=0;" edge="1" parent="1" source="P52JqAolS430aCwuecmm-56" target="P52JqAolS430aCwuecmm-49">
          <mxGeometry width="50" height="50" relative="1" as="geometry">
            <mxPoint x="1430" y="470" as="sourcePoint" />
            <mxPoint x="1480" y="420" as="targetPoint" />
            <Array as="points">
              <mxPoint x="1320" y="670" />
              <mxPoint x="1320" y="361" />
            </Array>
          </mxGeometry>
        </mxCell>
        <mxCell id="zNdpLEjtTtn93k2vqWFM-2" value="yes" style="text;html=1;align=center;verticalAlign=middle;resizable=0;points=[];autosize=1;strokeColor=none;" vertex="1" parent="1">
          <mxGeometry x="1320" y="520" width="30" height="20" as="geometry" />
        </mxCell>
        <mxCell id="zNdpLEjtTtn93k2vqWFM-3" value="Success" style="text;html=1;align=center;verticalAlign=middle;resizable=0;points=[];autosize=1;strokeColor=none;" vertex="1" parent="1">
          <mxGeometry x="1110" y="-20" width="60" height="20" as="geometry" />
        </mxCell>
      </root>
    </mxGraphModel>
  </diagram>
</mxfile>
